<svg xmlns="http://www.w3.org/2000/svg" viewBox="0 0 800 1730" preserveAspectRatio="xMidYMid slice"><defs><pattern id="p" width="300" height="300" patternUnits="userSpaceOnUse"><g fill="none" stroke="#C6712F" stroke-width="2.0" stroke-linecap="round" stroke-linejoin="round" opacity="0.62"><g transform="translate(32.6 27.7) rotate(6.6) scale(0.74) translate(-20 -20)"><path d="M4 11 h32 v19 h-32 z"/><path d="M4 11 L20 24 L36 11"/></g><g transform="translate(113.5 33.7) rotate(-19.4) scale(0.84) translate(-20 -20)"><path d="M6 9 h28 a3 3 0 0 1 3 3 v16 a3 3 0 0 1 -3 3 h-28 a3 3 0 0 1 -3 -3 v-16 a3 3 0 0 1 3 -3 z"/><path d="M17 15 L26 20 L17 25 Z" fill="currentColor" stroke="none"/></g><g transform="translate(174.5 35.6) rotate(-18.9) scale(0.74) translate(-20 -20)"><path d="M20 34 C6 24 6 12 14 12 C18 12 20 15 20 17 C20 15 22 12 26 12 C34 12 34 24 20 34 Z"/></g><g transform="translate(260.4 46.7) rotate(-16.6) scale(0.77) translate(-20 -20)"><path d="M6 8 h26 a4 4 0 0 1 4 4 v13 a4 4 0 0 1 -4 4 h-15 l-8 6 v-6 h-3 a4 4 0 0 1 -4 -4 v-13 a4 4 0 0 1 4 -4 z"/></g><g transform="translate(41.1 125.0) rotate(3.4) scale(0.81) translate(-20 -20)"><path d="M11 14 h18 l2 22 h-22 z"/><path d="M15 15 a5 6 0 0 1 10 0"/></g><g transform="translate(125.8 99.8) rotate(15.8) scale(0.79) translate(-20 -20)"><circle cx="20" cy="20" r="14"/><circle cx="20" cy="20" r="8"/></g><g transform="translate(177.5 101.8) rotate(-8.4) scale(0.91) translate(-20 -20)"><path d="M20 4 L34 12 L34 28 L20 36 L6 28 L6 12 Z"/></g><g transform="translate(253.6 114.8) rotate(6.1) scale(0.81) translate(-20 -20)"><path d="M20 4 C11 4 5 11 5 18 C5 28 20 37 20 37 C20 37 35 28 35 18 C35 11 29 4 20 4 Z"/><circle cx="20" cy="17" r="5"/></g><g transform="translate(38.8 175.3) rotate(-19.4) scale(0.77) translate(-20 -20)"><path d="M6 14 h6 l3 -4 h10 l3 4 h6 v17 h-28 z"/><circle cx="20" cy="23" r="6"/></g><g transform="translate(117.6 185.5) rotate(-8.2) scale(0.85) translate(-20 -20)"><path d="M16 28 V9 L28 6 V25"/><circle cx="13" cy="28" r="3.2"/><circle cx="25" cy="25" r="3.2"/></g><g transform="translate(186.2 181.9) rotate(13.0) scale(0.88) translate(-20 -20)"><path d="M4 11 h32 v19 h-32 z"/><path d="M4 11 L20 24 L36 11"/></g><g transform="translate(255.3 189.6) rotate(1.1) scale(0.92) translate(-20 -20)"><path d="M6 9 h28 a3 3 0 0 1 3 3 v16 a3 3 0 0 1 -3 3 h-28 a3 3 0 0 1 -3 -3 v-16 a3 3 0 0 1 3 -3 z"/><path d="M17 15 L26 20 L17 25 Z" fill="currentColor" stroke="none"/></g><g transform="translate(43.9 256.6) rotate(21.1) scale(0.75) translate(-20 -20)"><path d="M20 34 C6 24 6 12 14 12 C18 12 20 15 20 17 C20 15 22 12 26 12 C34 12 34 24 20 34 Z"/></g><g transform="translate(110.2 269.7) rotate(-15.3) scale(0.83) translate(-20 -20)"><path d="M6 8 h26 a4 4 0 0 1 4 4 v13 a4 4 0 0 1 -4 4 h-15 l-8 6 v-6 h-3 a4 4 0 0 1 -4 -4 v-13 a4 4 0 0 1 4 -4 z"/></g><g transform="translate(174.6 267.2) rotate(11.6) scale(0.85) translate(-20 -20)"><path d="M11 14 h18 l2 22 h-22 z"/><path d="M15 15 a5 6 0 0 1 10 0"/></g><g transform="translate(273.0 257.3) rotate(8.6) scale(0.86) translate(-20 -20)"><circle cx="20" cy="20" r="14"/><circle cx="20" cy="20" r="8"/></g></g></pattern></defs><rect width="800" height="1730" fill="#171310"/><rect width="800" height="1730" fill="url(#p)"/></svg>